<svg width="200" height="35" fill="none" xmlns="http://www.w3.org/2000/svg"><path d="M0 27.1h18.631v-6.022H6.211V1.882H0V27.1zM29.236 7.716c-5.797 0-9.862 4.328-9.862 9.974 0 5.27 3.312 9.975 9.749 9.975 4.479 0 8.355-2.296 9.56-6.587h-6.06c-.602.94-2.145 1.543-3.576 1.43-2.183-.188-3.425-1.468-3.801-2.898h13.55c.753-6.85-3.275-11.894-9.56-11.894zm-.038 5.119c1.844 0 3.312.866 3.84 2.446H25.32c.527-1.505 1.995-2.446 3.877-2.446zM54.784 10.577h-.15c-1.13-1.619-3.2-2.861-5.797-2.861-5.156 0-8.694 4.253-8.694 10.05 0 5.947 3.764 9.899 8.694 9.899 2.597 0 4.667-1.242 5.797-2.86h.15V27.1h5.797V8.28h-5.797v2.297zm-4.366 11.592c-2.484 0-4.366-1.844-4.366-4.479 0-2.634 1.882-4.479 4.366-4.479 2.522 0 4.366 1.92 4.366 4.48 0 2.446-1.769 4.478-4.366 4.478zM68.928 8.28c-3.613 0-6.436 2.372-6.436 5.797 0 2.56 1.995 4.517 4.78 5.119l6.85 1.468c.264.075.339.263.339.414 0 .188-.15.376-.414.376H63.282V27.1h10.803c3.613 0 6.511-2.409 6.511-5.872 0-2.672-1.92-4.667-4.818-5.231l-6.737-1.318c-.188-.037-.339-.226-.339-.376 0-.188.15-.377.414-.377h10.125V8.282H68.928zM82.51 0v6.21h5.834V0H82.51zm0 8.28V27.1h5.834V8.28H82.51zM102.767 7.754c-2.107 0-4.102.94-5.344 2.672h-.151V8.281h-5.684V27.1h5.835v-9.938c0-2.333 1.806-3.65 3.538-3.65 1.543 0 3.161 1.053 3.161 3.462V27.1h5.834V16.185c0-5.495-2.71-8.431-7.189-8.431zM126.35 10.577h-.151c-1.129-1.619-3.199-2.861-5.796-2.861-5.157 0-8.695 4.253-8.695 10.05 0 5.947 3.764 9.899 8.695 9.899 2.597 0 4.667-1.242 5.796-2.86h.151v2.747c0 .753-.565 1.204-1.355 1.204h-10.802v5.872h12.232c3.614 0 5.721-1.957 5.721-5.533V8.281h-5.796v2.296zm-4.366 11.592c-2.484 0-4.366-1.844-4.366-4.479 0-2.634 1.882-4.479 4.366-4.479 2.522 0 4.366 1.92 4.366 4.48 0 2.446-1.769 4.478-4.366 4.478z" fill="#FF9514"/><path d="M154.223 16.599c-.677 3.049-3.161 4.968-6.511 4.968-4.404 0-6.775-3.35-6.775-7.076 0-3.801 2.409-7 6.699-7.076 3.426-.075 5.722 1.92 6.437 4.705h6.436c-.715-6.06-5.684-10.803-12.797-10.803-7.98 0-13.099 5.947-13.099 13.25 0 7.226 5.119 13.098 13.099 13.098 7.302 0 12.232-4.78 12.872-11.066h-6.361zM176.633 10.577h-.15c-1.129-1.619-3.199-2.861-5.796-2.861-5.157 0-8.695 4.253-8.695 10.05 0 5.947 3.764 9.899 8.695 9.899 2.597 0 4.667-1.242 5.796-2.86h.15V27.1h5.797V8.28h-5.797v2.297zm-4.366 11.592c-2.484 0-4.366-1.844-4.366-4.479 0-2.634 1.882-4.479 4.366-4.479 2.522 0 4.366 1.92 4.366 4.48 0 2.446-1.769 4.478-4.366 4.478zM195.323 8.28c-1.92 0-3.463 1.13-3.99 2.824h-.151V8.28h-5.532V27.1h5.834v-9.523c0-1.995 1.467-3.463 3.462-3.463h4.555V8.28h-4.178z" fill="#111"/></svg>