<svg width="166" height="29" fill="none" xmlns="http://www.w3.org/2000/svg"><path d="M0 22.55h15.503v-5.012H5.168V1.566H0v20.983zM24.326 6.42c-4.823 0-8.205 3.602-8.205 8.3 0 4.384 2.756 8.3 8.111 8.3 3.727 0 6.953-1.911 7.955-5.482h-5.042c-.501.783-1.785 1.285-2.975 1.19-1.817-.156-2.85-1.22-3.164-2.411h11.275c.627-5.7-2.724-9.897-7.955-9.897zm-.031 4.26c1.535 0 2.756.72 3.194 2.035h-6.42c.439-1.252 1.66-2.035 3.226-2.035zM45.585 8.8h-.126c-.94-1.346-2.662-2.38-4.823-2.38-4.29 0-7.234 3.54-7.234 8.362 0 4.949 3.132 8.237 7.234 8.237 2.161 0 3.884-1.033 4.823-2.38h.126v1.91h4.823V6.89h-4.823V8.8zm-3.633 9.647c-2.067 0-3.633-1.535-3.633-3.727 0-2.193 1.566-3.727 3.633-3.727 2.098 0 3.633 1.597 3.633 3.727 0 2.036-1.472 3.727-3.633 3.727zM57.353 6.89c-3.006 0-5.355 1.973-5.355 4.823 0 2.13 1.66 3.758 3.977 4.26l5.7 1.22c.22.064.282.22.282.345 0 .157-.125.314-.344.314h-8.957v4.697h8.988c3.007 0 5.418-2.004 5.418-4.885 0-2.224-1.597-3.884-4.008-4.354l-5.607-1.096c-.156-.031-.281-.188-.281-.313 0-.156.125-.313.344-.313h8.425V6.89h-8.582zM68.654 0v5.168h4.855V0h-4.855zm0 6.89v15.66h4.855V6.89h-4.855zM85.51 6.452c-1.753 0-3.413.783-4.447 2.223h-.125V6.89h-4.73v15.66h4.855V14.28c0-1.942 1.504-3.038 2.944-3.038 1.284 0 2.63.877 2.63 2.882v8.424h4.855v-9.082c0-4.572-2.255-7.015-5.982-7.015zM105.133 8.8h-.125c-.94-1.346-2.662-2.38-4.823-2.38-4.291 0-7.235 3.54-7.235 8.362 0 4.949 3.132 8.237 7.235 8.237 2.161 0 3.883-1.033 4.823-2.38h.125v2.286c0 .627-.47 1.002-1.127 1.002h-8.989v4.886h10.179c3.006 0 4.76-1.628 4.76-4.604V6.89h-4.823V8.8zm-3.633 9.647c-2.067 0-3.633-1.535-3.633-3.727 0-2.193 1.566-3.727 3.633-3.727 2.098 0 3.633 1.597 3.633 3.727 0 2.036-1.472 3.727-3.633 3.727z" fill="#FF9514"/><path d="M128.326 13.812c-.564 2.536-2.631 4.134-5.419 4.134-3.664 0-5.637-2.788-5.637-5.888 0-3.163 2.004-5.826 5.575-5.888 2.85-.063 4.76 1.597 5.355 3.915h5.356c-.595-5.043-4.729-8.989-10.649-8.989-6.639 0-10.898 4.949-10.898 11.024 0 6.014 4.259 10.9 10.898 10.9 6.076 0 10.179-3.978 10.711-9.208h-5.292zM146.973 8.8h-.126c-.939-1.346-2.662-2.38-4.823-2.38-4.29 0-7.234 3.54-7.234 8.362 0 4.949 3.132 8.237 7.234 8.237 2.161 0 3.884-1.033 4.823-2.38h.126v1.91h4.823V6.89h-4.823V8.8zm-3.633 9.647c-2.067 0-3.633-1.535-3.633-3.727 0-2.193 1.566-3.727 3.633-3.727 2.098 0 3.633 1.597 3.633 3.727 0 2.036-1.472 3.727-3.633 3.727zM162.524 6.89c-1.598 0-2.882.94-3.32 2.349h-.125V6.89h-4.604v15.66h4.854v-7.924c0-1.66 1.221-2.881 2.881-2.881H166V6.89h-3.476z" fill="#fff"/></svg>